<svg width="220" height="80" viewBox="250 210 700 260" fill="none" xmlns="http://www.w3.org/2000/svg">
<path d="M348.6 341.1C350.3 345.5 352.3 349 354.5 351.6C358.4 356.2 363.3 358.4 369.2 358.4C372.4 358.4 375.1 357.4 377.4 355.4C379.7 353.4 380.9 350.7 380.9 347.1C380.9 343.9 379.7 341.1 377.4 338.8C375.9 337.3 372.7 335.1 367.8 332.1L359.3 326.9C356.7 325.3 354.7 323.7 353.2 322.1C350.4 319 349 315.6 349 311.9C349 307 350.7 302.9 354 299.6C357.3 296.3 361.8 294.7 367.3 294.7C369.6 294.7 372.3 295.2 375.5 296.3C378.7 297.4 380.5 297.9 381 297.9C382.2 297.9 383.1 297.6 383.6 297C384.1 296.4 384.4 295.6 384.7 294.6H386.7L388.9 315.4H386.5C384.9 309.1 382.3 304.7 378.7 302.3C375.1 299.8 371.6 298.6 368.1 298.6C365.4 298.6 363 299.4 361 301C359 302.6 358 304.8 358 307.6C358 310.1 358.8 312.3 360.3 314C361.9 315.8 364.3 317.7 367.5 319.7L376.2 325C381.7 328.3 385.5 331.4 387.8 334.1C390 336.9 391.1 340.2 391.1 344C391.1 349.1 389.1 353.4 385.2 356.9C381.3 360.3 376.2 362.1 370.1 362.1C367 362.1 363.8 361.5 360.5 360.4C357.1 359.3 355.2 358.7 354.7 358.7C353.5 358.7 352.7 359.1 352.3 359.8C351.9 360.5 351.6 361.3 351.5 362H349.3L346.3 341.2H348.6V341.1Z" fill="#ff0000"/>
<path d="M388.2 318.3H408.7V319.6C407.1 319.6 405.9 319.8 405.1 320C403.6 320.4 402.9 321.3 402.9 322.5C402.9 323 403 323.4 403.1 323.9C403.3 324.4 403.6 325.1 404 326L415.2 349.9L424.5 325.8C424.6 325.5 424.8 325 425 324C425.2 323.1 425.3 322.5 425.3 322.1C425.3 321.3 425 320.6 424.4 320.2C423.8 319.8 423.1 319.6 422.2 319.5L420.7 319.4V318.1H434V319.4C432.7 319.6 431.7 320 431 320.8C430.3 321.6 429.8 322.6 429.3 324L414 364C411.3 370.9 408.8 375.9 406.4 379C404 382.1 400.9 383.6 397.2 383.6C395.4 383.6 393.7 383.2 392.1 382.3C390.5 381.4 389.7 380 389.7 378C389.7 376.7 390.2 375.7 391.1 374.9C392 374.1 393.2 373.7 394.7 373.7C395.5 373.7 396.8 374 398.4 374.6C400 375.2 401.2 375.5 401.9 375.5C403.7 375.5 405.6 373.3 407.6 369C409.6 364.7 410.6 361.8 410.6 360.4C410.6 360.1 410.6 359.8 410.5 359.4C410.4 359 410.3 358.6 410.2 358.3L394.9 325.7C393.8 323.3 392.8 321.8 392 321C391.2 320.3 390 319.8 388.3 319.5V318.3H388.2Z" fill="#ff0000"/>
<path d="M435.2 347.1H436.8C437.5 350.5 438.5 353.1 439.8 354.9C442.1 358.2 445.4 359.9 449.7 359.9C452.1 359.9 454 359.3 455.4 358C456.8 356.8 457.5 355.2 457.5 353.2C457.5 351.9 457.1 350.7 456.3 349.6C455.5 348.4 454.1 347.3 452 346.2L446.6 343.3C442.6 341.3 439.7 339.4 437.8 337.4C435.9 335.4 435 333.1 435 330.3C435 327 436.3 324.2 438.9 322.1C441.5 320 444.7 318.9 448.7 318.9C450.4 318.9 452.3 319.2 454.4 319.8C456.5 320.4 457.6 320.7 457.9 320.7C458.5 320.7 458.9 320.6 459.2 320.5C459.5 320.4 459.7 320.1 459.9 319.8H461.1L461.4 332.3H459.9C459.3 329.4 458.4 327.2 457.3 325.6C455.3 322.6 452.4 321.1 448.6 321.1C446.3 321.1 444.6 321.7 443.3 323C442 324.3 441.4 325.8 441.4 327.5C441.4 330.2 443.6 332.7 448.1 334.8L454.5 338C461.4 341.5 464.8 345.5 464.8 350.1C464.8 353.6 463.4 356.5 460.5 358.7C457.6 360.9 453.9 362.1 449.3 362.1C447.4 362.1 445.2 361.8 442.7 361.2C440.2 360.6 438.8 360.3 438.3 360.3C437.9 360.3 437.6 360.4 437.3 360.7C437 361 436.8 361.3 436.6 361.6H435.3V347.1H435.2Z" fill="#ff0000"/>
<path d="M490.8 321.9V325H480.6L480.5 349.6C480.5 351.8 480.7 353.4 481.1 354.5C481.9 356.5 483.5 357.4 485.8 357.4C487 357.4 488 357.2 488.9 356.7C489.8 356.2 490.8 355.4 491.9 354.4L493.2 355.3L492.1 356.6C490.4 358.6 488.5 360 486.6 360.8C484.7 361.6 482.8 362 481 362C477.1 362 474.4 360.5 473 357.5C472.2 355.9 471.9 353.6 471.9 350.8V324.9H466.5C466.3 324.8 466.2 324.7 466.1 324.6C466 324.5 466 324.4 466 324.3C466 324 466.1 323.8 466.2 323.6C466.3 323.4 466.8 323.1 467.6 322.5C469.9 320.9 471.5 319.6 472.6 318.6C473.6 317.6 476 314.9 479.7 310.6C480.1 310.6 480.4 310.6 480.5 310.7C480.6 310.8 480.6 311 480.6 311.3V321.8H490.8V321.9Z" fill="#ff0000"/>
<path d="M526.7 325.2C529.8 328 531.3 331.9 531.3 337H503.8C504.1 343.6 505.6 348.4 508.3 351.4C511 354.4 514.3 355.9 518 355.9C521 355.9 523.6 355.1 525.7 353.6C527.8 352 529.7 349.8 531.5 347L533 347.5C531.8 351.1 529.6 354.5 526.4 357.5C523.2 360.6 519.2 362.1 514.5 362.1C509.1 362.1 504.9 360.1 501.9 356.1C498.9 352.1 497.5 347.4 497.5 342.2C497.5 336.5 499.2 331.6 502.7 327.4C506.1 323.3 510.6 321.2 516.1 321.2C520.1 321 523.6 322.4 526.7 325.2ZM505.9 328.5C505 330 504.3 332 503.9 334.3H522.2C521.9 331.5 521.3 329.3 520.6 328C519.2 325.5 516.8 324.3 513.5 324.3C510.2 324.2 507.7 325.6 505.9 328.5Z" fill="#ff0000"/>
<path d="M536.4 360.8C538.9 360.6 540.6 360.2 541.4 359.6C542.7 358.7 543.3 356.9 543.3 354.3V330.6C543.3 328.3 543 326.9 542.4 326.2C541.8 325.5 540.7 325.1 539.3 325.1C538.6 325.1 538.1 325.1 537.8 325.2C537.5 325.3 537.1 325.4 536.6 325.5V323.9L540.1 322.8C541.4 322.4 543.4 321.7 546.3 320.6C549.2 319.6 550.7 319 550.8 319C551 319 551.1 319.1 551.1 319.2C551.1 319.4 551.1 319.6 551.1 320.1V326.3C554.3 323.5 557 321.6 559.3 320.6C561.6 319.5 564 319 566.4 319C569.7 319 572.3 320.1 574.3 322.2C575.3 323.4 576.2 324.9 576.9 326.9C579.3 324.6 581.4 322.9 583.1 321.8C586.2 319.9 589.3 319 592.5 319C597.7 319 601.1 321 602.9 325C603.9 327.3 604.4 330.8 604.4 335.7V354.7C604.4 356.9 604.9 358.3 605.9 359.1C606.9 359.9 608.7 360.4 611.4 360.6V361.8H589.6V360.5C592.4 360.3 594.2 359.7 595.1 358.9C596 358.1 596.4 356.4 596.4 353.9V334.1C596.4 331.1 596.1 329 595.4 327.5C594.2 325 591.9 323.7 588.4 323.7C586.3 323.7 584.2 324.4 582.2 325.7C581 326.5 579.5 327.7 577.8 329.4V352.9C577.8 355.4 578.3 357.3 579.2 358.5C580.1 359.8 582.1 360.5 585 360.6V361.8H562.9V360.6C566 360.2 567.9 359.5 568.7 358.5C569.5 357.5 570 354.9 570 350.8V338C570 333.3 569.7 330.1 569 328.3C567.9 325.3 565.7 323.8 562.2 323.8C560.2 323.8 558.3 324.3 556.4 325.3C554.5 326.3 552.8 327.7 551.4 329.3V354.4C551.4 356.7 551.8 358.3 552.7 359.2C553.6 360.1 555.4 360.5 558.3 360.6V361.8H536.4V360.8Z" fill="#ff0000"/>
<path d="M619.9 296.2V297.9C617.4 297.9 615.7 298.1 614.8 298.4C613.2 298.9 612.4 300 612.4 301.6C612.4 302.4 612.7 303.5 613.2 305C613.8 306.5 614.8 308.9 616.4 312.2L632 346.3L646.1 309.4C646.7 307.8 647.2 306.4 647.5 305.3C647.8 304.2 648 303.2 648 302.5C648 300.6 647.2 299.3 645.5 298.6C644.5 298.2 642.9 298 640.7 297.9V296.2H661V297.9C658.9 298.2 657.3 298.7 656.3 299.6C654.8 300.8 653.3 303.3 651.8 307.1L629.8 362.1H628.3L603.7 308.3C601.6 303.7 600 300.9 598.7 299.8C597.5 298.7 595.6 298 593.2 297.9V296.2H619.9Z" fill="#ff0000"/>
<path d="M679.1 320.7C682.5 323.8 684.2 328.2 684.2 333.9H653.4C653.7 341.3 655.4 346.6 658.5 350C661.6 353.4 665.2 355.1 669.4 355.1C672.8 355.1 675.7 354.2 678 352.5C680.3 350.8 682.5 348.3 684.5 345.1L686.2 345.7C684.9 349.8 682.4 353.5 678.7 356.9C675.1 360.3 670.6 362.1 665.3 362.1C659.2 362.1 654.5 359.8 651.2 355.3C647.9 350.8 646.2 345.6 646.2 339.7C646.2 333.3 648.1 327.8 652 323.1C655.9 318.4 660.9 316.1 667.1 316.1C671.7 316.1 675.7 317.6 679.1 320.7ZM655.8 324.4C654.8 326.1 654 328.3 653.6 330.9H674.1C673.7 327.7 673.1 325.3 672.3 323.8C670.7 321 668.1 319.6 664.3 319.6C660.6 319.6 657.8 321.2 655.8 324.4Z" fill="#ff0000"/>
<path d="M687.3 360.4C690.3 360.1 692.3 359.6 693.2 358.8C694.1 358 694.7 356.4 694.7 353.8V332.3C694.7 329.1 694.4 326.9 693.8 325.5C693.2 324.1 692.1 323.5 690.5 323.5C690.2 323.5 689.7 323.5 689.2 323.6C688.7 323.7 688.1 323.8 687.5 323.9V322.3C689.3 321.7 691.2 321 693.2 320.3C695.1 319.6 696.5 319.2 697.2 318.9C698.8 318.3 700.5 317.6 702.2 316.8C702.4 316.8 702.6 316.9 702.6 317C702.6 317.2 702.7 317.5 702.7 318V325.8C704.8 323 706.8 320.8 708.7 319.2C710.6 317.6 712.6 316.8 714.7 316.8C716.4 316.8 717.7 317.3 718.7 318.3C719.7 319.3 720.3 320.5 720.3 322C720.3 323.3 719.9 324.4 719.1 325.3C718.3 326.2 717.3 326.6 716.1 326.6C714.9 326.6 713.6 326 712.4 324.9C711.2 323.8 710.2 323.2 709.5 323.2C708.4 323.2 707 324.1 705.3 325.9C703.6 327.7 702.8 329.6 702.8 331.5V353C702.8 355.7 703.4 357.6 704.7 358.7C706 359.8 708.1 360.3 711.2 360.2V361.8H687.3V360.4Z" fill="#ff0000"/>
<path d="M721.7 360.7C725.2 360.4 727.4 359.8 728.3 359C729.2 358.2 729.7 355.9 729.7 352.1V329.3C729.7 327.2 729.6 325.8 729.3 325C728.8 323.7 727.8 323 726.2 323C725.8 323 725.5 323 725.2 323.1C724.9 323.2 723.9 323.4 722.3 323.9V322.4L724.4 321.7C730.1 319.9 734 318.5 736.3 317.6C737.2 317.2 737.8 317 738 317C738.1 317.2 738.1 317.5 738.1 317.7V352C738.1 355.6 738.5 357.9 739.4 358.8C740.3 359.7 742.3 360.3 745.4 360.6V361.9H721.8V360.7H721.7ZM729.4 296.8C730.4 295.8 731.6 295.3 733 295.3C734.4 295.3 735.6 295.8 736.6 296.8C737.6 297.8 738.1 298.9 738.1 300.3C738.1 301.7 737.6 302.8 736.6 303.8C735.6 304.8 734.4 305.2 733 305.2C731.6 305.2 730.4 304.7 729.4 303.8C728.4 302.8 727.9 301.7 727.9 300.3C727.9 298.9 728.5 297.8 729.4 296.8Z" fill="#ff0000"/>
<path d="M749.2 360.7C752.2 360.4 754.3 359.8 755.3 358.9C756.4 358 756.9 356.2 756.9 353.6V306.9C756.9 304.8 756.7 303.3 756.4 302.6C755.8 301.3 754.4 300.6 752.5 300.6C752 300.6 751.6 300.6 751 300.7C750.5 300.8 749.8 300.9 749 301.1V299.5C753.4 298.4 758.6 296.8 764.8 294.9C765 294.9 765.2 295 765.2 295.2C765.2 295.4 765.3 295.8 765.3 296.4V353.7C765.3 356.5 765.8 358.3 766.8 359.1C767.8 359.9 769.8 360.4 772.8 360.7V362H749.3V360.7H749.2Z" fill="#ff0000"/>
<path d="M776.1 322.3C780.2 317.9 785.5 315.7 791.9 315.7C798.3 315.7 803.6 317.8 807.8 321.9C812 326 814.1 331.5 814.1 338.4C814.1 344.7 812.1 350.2 808 354.9C803.9 359.6 798.6 361.9 792.2 361.9C786 361.9 780.7 359.7 776.4 355.2C772.1 350.7 769.9 345.1 769.9 338.3C770 332 772 326.7 776.1 322.3ZM783.9 321.1C780.7 324 779 329 779 336.1C779 341.8 780.3 347.1 782.9 352C785.5 356.9 789.1 359.4 793.8 359.4C797.4 359.4 800.2 357.8 802.2 354.5C804.2 351.2 805.1 346.9 805.1 341.6C805.1 336.1 803.9 330.9 801.4 326C798.9 321.1 795.3 318.7 790.5 318.7C788 318.6 785.8 319.4 783.9 321.1Z" fill="#ff0000"/>
<path d="M823.9 341.7C822.2 339.2 821.3 336.3 821.3 333.2C821.3 329.4 822.9 325.7 826.1 322.3C829.3 318.9 833.8 317.1 839.7 317.1C842.2 317.1 845 317.7 848 318.8C851 319.9 853.9 320.5 856.7 320.5C857.4 320.5 858.5 320.5 860 320.4C861.5 320.3 862.5 320.3 863.2 320.3H863.8V324.3H854.9C855.5 325.7 856 326.9 856.3 327.9C856.9 329.8 857.2 331.6 857.2 333.3C857.2 337 855.6 340.5 852.3 343.6C849 346.7 844.7 348.3 839.1 348.3C838.2 348.3 836.7 348.2 834.4 347.9C833.4 347.9 832.1 348.7 830.4 350.3C828.7 351.9 827.9 353.2 827.9 354.2C827.9 355.3 829.1 356 831.5 356.5C833.1 356.8 834.8 357 836.8 357C845.7 357 851.7 357.5 854.9 358.4C860.1 359.9 862.7 363.2 862.7 368.3C862.7 373.5 859.7 377.6 853.6 380.7C847.5 383.8 841.4 385.3 835.2 385.3C829.5 385.3 825.1 384.2 821.8 382C818.5 379.8 816.8 377.5 816.8 375.1C816.8 373.9 817.2 372.8 818.1 371.6C819 370.5 820.7 368.8 823.3 366.6L826.7 363.7L827.3 363.1C825.7 362.5 824.5 361.9 823.8 361.4C822.4 360.4 821.7 359.2 821.7 357.9C821.7 356.7 822.3 355.4 823.5 353.9C824.7 352.4 827.2 350.1 831.1 346.8C828 346 825.6 344.2 823.9 341.7ZM829.3 378.3C832.6 379.3 836.3 379.9 840.5 379.9C846.2 379.9 850.9 379 854.5 377.1C858.1 375.2 859.9 372.9 859.9 370.1C859.9 367.9 858.4 366.4 855.5 365.7C853.7 365.3 850.3 365 845.3 365C844 365 842.7 364.9 841.3 364.9C839.9 364.9 838.6 364.8 837.4 364.7C836.6 364.7 835.4 364.5 833.7 364.3C832 364.1 830.7 363.9 829.9 363.7C829.5 363.7 828.5 364.7 826.9 366.8C825.3 368.9 824.4 370.8 824.4 372.6C824.5 375.3 826.1 377.2 829.3 378.3ZM845.8 344.5C847.9 342.9 848.9 340.2 848.9 336.3C848.9 333.2 848.1 329.7 846.4 325.8C844.7 321.9 841.9 320 838 320C834.6 320 832.3 321.5 831 324.6C830.3 326.2 830 328.2 830 330.5C830 334.5 831 338.1 833.1 341.3C835.1 344.5 837.8 346.1 841 346.1C842.9 346 844.5 345.5 845.8 344.5Z" fill="#ff0000"/>
<path d="M411.4 293C423.3 269.3 528.5 224.3 660.6 224.8C767.4 225.2 893.3 239 933.6 315H869.5C843.4 250.9 544.5 205.3 411.5 293.3L411.4 293Z" fill="#ff0000" stroke="none"/>
<path d="M787.6 382C775.7 405.7 670.5 450.7 538.4 450.2C431.6 449.8 305.7 436 265.4 360H329.5C355.6 424.1 654.5 469.7 787.5 381.7L787.6 382Z" fill="#ff0000" stroke="none"/>
</svg>
