<?xml version="1.0" encoding="UTF-8"?>
<svg width="800" height="671" viewBox="0 0 586 671" fill="none" xmlns="http://www.w3.org/2000/svg">
  <title>C programming language logo</title>
  <path fill-rule="evenodd" clip-rule="evenodd" fill="#FF0000" d="
    M 292 1 L 291 2 L 284 2 L 272 7 L 253 19 L 241 25 L 210 44 L 198 50 L 167 69 L 155 75 L 124 94 L 112 100 L 105 105 L 100 107 L 93 112 L 16 156 L 6 167 L 1 181 L 1 491 L 2 492 L 3 500 L 5 503 L 5 506 L 11 513 L 136 585 L 143 590 L 155 596 L 162 601 L 174 607 L 181 612 L 193 618 L 200 623 L 212 629 L 271 664 L 281 669 L 299 670 L 311 666 L 392 618 L 404 612 L 423 600 L 502 555 L 509 550 L 564 519 L 573 513 L 581 502 L 584 493 L 584 183 L 585 181 L 584 180 L 584 175 L 582 171 L 584 169 L 579 162 L 569 154 L 352 30 L 345 25 L 319 11 L 312 6 L 306 3 Z
    M 279 122 L 308 122 L 309 123 L 318 123 L 319 124 L 337 126 L 365 134 L 390 145 L 416 161 L 436 177 L 457 199 L 472 219 L 478 229 L 477 231 L 448 247 L 415 267 L 408 270 L 396 252 L 384 239 L 368 226 L 344 213 L 330 208 L 317 205 L 312 205 L 311 204 L 303 204 L 302 203 L 275 204 L 274 205 L 269 205 L 256 208 L 244 212 L 229 219 L 218 226 L 204 237 L 194 247 L 183 261 L 171 283 L 166 297 L 165 304 L 163 308 L 162 320 L 161 321 L 161 350 L 162 351 L 164 367 L 171 388 L 183 410 L 203 433 L 226 450 L 250 461 L 275 467 L 303 468 L 304 467 L 312 467 L 313 466 L 327 464 L 347 457 L 359 451 L 374 441 L 394 422 L 409 401 L 478 442 L 465 462 L 450 480 L 429 500 L 404 518 L 377 532 L 349 542 L 345 542 L 331 546 L 319 547 L 318 548 L 309 548 L 308 549 L 267 548 L 266 547 L 254 546 L 233 541 L 213 534 L 190 523 L 159 502 L 127 470 L 115 454 L 107 441 L 96 419 L 89 400 L 89 397 L 84 381 L 82 365 L 81 364 L 81 357 L 80 356 L 80 338 L 79 337 L 80 333 L 80 315 L 81 314 L 82 300 L 83 299 L 87 278 L 95 255 L 106 232 L 118 213 L 128 200 L 158 170 L 174 158 L 200 143 L 202 143 L 219 135 L 241 128 L 245 128 L 261 124 L 278 123 Z
  "/>
</svg>
