<?xml version="1.0" encoding="UTF-8"?>
<svg width="512" height="512" viewBox="0 0 512 512" fill="none" xmlns="http://www.w3.org/2000/svg">
    <path d="M 54 62 L 43 74 L 32 100 L 30 114 L 30 135 L 36 167 L 43 188 L 53 211 L 79 257 L 108 297 L 139 333 L 178 372 L 214 403 L 259 435 L 290 453 L 313 464 L 344 475 L 376 481 L 397 481 L 411 479 L 423 475 L 440 466 L 451 454 L 461 428 L 480 386 L 481 375 L 479 370 L 474 365 L 380 309 L 372 306 L 364 307 L 293 345 L 287 345 L 281 342 L 169 230 L 166 224 L 166 218 L 204 147 L 205 140 L 202 131 L 146 37 L 141 32 L 136 30 L 125 31 Z" fill="#ff0000"/>
</svg>
